<mxfile host="app.diagrams.net" modified="2022-11-28T10:09:07.677Z" agent="5.0 (Windows NT 10.0; Win64; x64) AppleWebKit/537.36 (KHTML, like Gecko) Chrome/107.0.0.0 Safari/537.36 Edg/107.0.1418.56" version="20.6.0" etag="OKPJKEAUmjnPR_zXtmNC" type="github">
  <diagram id="QZdrPpxZRQpyEvlnEPuX" name="第 1 页">
    <mxGraphModel dx="1804" dy="898" grid="1" gridSize="10" guides="1" tooltips="1" connect="1" arrows="1" fold="1" page="1" pageScale="1" pageWidth="827" pageHeight="1169" math="0" shadow="0">
      <root>
        <mxCell id="0" />
        <mxCell id="1" parent="0" />
        <mxCell id="M-NSAudVDiKB4oBg6RZZ-84" value="" style="rounded=0;whiteSpace=wrap;html=1;fontSize=18;" vertex="1" parent="1">
          <mxGeometry x="40" y="840" width="680" height="760" as="geometry" />
        </mxCell>
        <mxCell id="M-NSAudVDiKB4oBg6RZZ-49" value="" style="rounded=0;whiteSpace=wrap;html=1;" vertex="1" parent="1">
          <mxGeometry y="160" width="1920" height="480" as="geometry" />
        </mxCell>
        <mxCell id="M-NSAudVDiKB4oBg6RZZ-6" style="edgeStyle=orthogonalEdgeStyle;curved=1;rounded=0;orthogonalLoop=1;jettySize=auto;html=1;exitX=0.5;exitY=0;exitDx=0;exitDy=0;exitPerimeter=0;entryX=0;entryY=0.5;entryDx=0;entryDy=0;" edge="1" parent="1" source="M-NSAudVDiKB4oBg6RZZ-1" target="M-NSAudVDiKB4oBg6RZZ-2">
          <mxGeometry relative="1" as="geometry" />
        </mxCell>
        <mxCell id="M-NSAudVDiKB4oBg6RZZ-8" value="分批获取" style="edgeLabel;html=1;align=center;verticalAlign=middle;resizable=0;points=[];" vertex="1" connectable="0" parent="M-NSAudVDiKB4oBg6RZZ-6">
          <mxGeometry x="-0.3451" y="-16" relative="1" as="geometry">
            <mxPoint as="offset" />
          </mxGeometry>
        </mxCell>
        <mxCell id="M-NSAudVDiKB4oBg6RZZ-7" style="edgeStyle=orthogonalEdgeStyle;curved=1;rounded=0;orthogonalLoop=1;jettySize=auto;html=1;exitX=0.5;exitY=1;exitDx=0;exitDy=0;exitPerimeter=0;entryX=0;entryY=0.5;entryDx=0;entryDy=0;" edge="1" parent="1" source="M-NSAudVDiKB4oBg6RZZ-1" target="M-NSAudVDiKB4oBg6RZZ-3">
          <mxGeometry relative="1" as="geometry" />
        </mxCell>
        <mxCell id="M-NSAudVDiKB4oBg6RZZ-9" value="分批获取" style="edgeLabel;html=1;align=center;verticalAlign=middle;resizable=0;points=[];" vertex="1" connectable="0" parent="M-NSAudVDiKB4oBg6RZZ-7">
          <mxGeometry x="-0.4235" y="11" relative="1" as="geometry">
            <mxPoint as="offset" />
          </mxGeometry>
        </mxCell>
        <mxCell id="M-NSAudVDiKB4oBg6RZZ-1" value="储存" style="shape=cylinder3;whiteSpace=wrap;html=1;boundedLbl=1;backgroundOutline=1;size=15;" vertex="1" parent="1">
          <mxGeometry x="40" y="320" width="60" height="80" as="geometry" />
        </mxCell>
        <mxCell id="M-NSAudVDiKB4oBg6RZZ-11" style="edgeStyle=orthogonalEdgeStyle;curved=1;rounded=0;orthogonalLoop=1;jettySize=auto;html=1;exitX=1;exitY=0.25;exitDx=0;exitDy=0;entryX=0;entryY=0.25;entryDx=0;entryDy=0;" edge="1" parent="1" source="M-NSAudVDiKB4oBg6RZZ-2" target="M-NSAudVDiKB4oBg6RZZ-10">
          <mxGeometry relative="1" as="geometry" />
        </mxCell>
        <mxCell id="M-NSAudVDiKB4oBg6RZZ-2" value="左源输入数据" style="shape=document;whiteSpace=wrap;html=1;boundedLbl=1;" vertex="1" parent="1">
          <mxGeometry x="160" y="200" width="120" height="80" as="geometry" />
        </mxCell>
        <mxCell id="M-NSAudVDiKB4oBg6RZZ-12" style="edgeStyle=orthogonalEdgeStyle;curved=1;rounded=0;orthogonalLoop=1;jettySize=auto;html=1;exitX=1;exitY=0.25;exitDx=0;exitDy=0;entryX=0;entryY=0.75;entryDx=0;entryDy=0;" edge="1" parent="1" source="M-NSAudVDiKB4oBg6RZZ-3" target="M-NSAudVDiKB4oBg6RZZ-10">
          <mxGeometry relative="1" as="geometry" />
        </mxCell>
        <mxCell id="M-NSAudVDiKB4oBg6RZZ-3" value="右源输入数据" style="shape=document;whiteSpace=wrap;html=1;boundedLbl=1;" vertex="1" parent="1">
          <mxGeometry x="160" y="440" width="120" height="80" as="geometry" />
        </mxCell>
        <mxCell id="M-NSAudVDiKB4oBg6RZZ-16" style="edgeStyle=orthogonalEdgeStyle;curved=1;rounded=0;orthogonalLoop=1;jettySize=auto;html=1;exitX=1;exitY=0.25;exitDx=0;exitDy=0;entryX=0;entryY=0.5;entryDx=0;entryDy=0;" edge="1" parent="1" source="M-NSAudVDiKB4oBg6RZZ-10" target="M-NSAudVDiKB4oBg6RZZ-13">
          <mxGeometry relative="1" as="geometry" />
        </mxCell>
        <mxCell id="M-NSAudVDiKB4oBg6RZZ-17" style="edgeStyle=orthogonalEdgeStyle;curved=1;rounded=0;orthogonalLoop=1;jettySize=auto;html=1;exitX=1;exitY=0.75;exitDx=0;exitDy=0;entryX=0;entryY=0.5;entryDx=0;entryDy=0;" edge="1" parent="1" source="M-NSAudVDiKB4oBg6RZZ-10" target="M-NSAudVDiKB4oBg6RZZ-15">
          <mxGeometry relative="1" as="geometry" />
        </mxCell>
        <mxCell id="M-NSAudVDiKB4oBg6RZZ-10" value="比对类型" style="rounded=0;whiteSpace=wrap;html=1;" vertex="1" parent="1">
          <mxGeometry x="380" y="330" width="120" height="60" as="geometry" />
        </mxCell>
        <mxCell id="M-NSAudVDiKB4oBg6RZZ-19" style="edgeStyle=orthogonalEdgeStyle;curved=1;rounded=0;orthogonalLoop=1;jettySize=auto;html=1;exitX=1;exitY=0.5;exitDx=0;exitDy=0;entryX=0;entryY=0.25;entryDx=0;entryDy=0;" edge="1" parent="1" source="M-NSAudVDiKB4oBg6RZZ-13" target="M-NSAudVDiKB4oBg6RZZ-18">
          <mxGeometry relative="1" as="geometry" />
        </mxCell>
        <mxCell id="M-NSAudVDiKB4oBg6RZZ-13" value="左源输入计算结构" style="rounded=0;whiteSpace=wrap;html=1;" vertex="1" parent="1">
          <mxGeometry x="560" y="210" width="120" height="60" as="geometry" />
        </mxCell>
        <mxCell id="M-NSAudVDiKB4oBg6RZZ-20" style="edgeStyle=orthogonalEdgeStyle;curved=1;rounded=0;orthogonalLoop=1;jettySize=auto;html=1;exitX=1;exitY=0.5;exitDx=0;exitDy=0;entryX=0;entryY=0.5;entryDx=0;entryDy=0;" edge="1" parent="1" source="M-NSAudVDiKB4oBg6RZZ-14" target="M-NSAudVDiKB4oBg6RZZ-18">
          <mxGeometry relative="1" as="geometry" />
        </mxCell>
        <mxCell id="M-NSAudVDiKB4oBg6RZZ-14" value="算法配置" style="rounded=0;whiteSpace=wrap;html=1;" vertex="1" parent="1">
          <mxGeometry x="560" y="330" width="120" height="60" as="geometry" />
        </mxCell>
        <mxCell id="M-NSAudVDiKB4oBg6RZZ-21" style="edgeStyle=orthogonalEdgeStyle;curved=1;rounded=0;orthogonalLoop=1;jettySize=auto;html=1;exitX=1;exitY=0.5;exitDx=0;exitDy=0;entryX=0;entryY=0.75;entryDx=0;entryDy=0;" edge="1" parent="1" source="M-NSAudVDiKB4oBg6RZZ-15" target="M-NSAudVDiKB4oBg6RZZ-18">
          <mxGeometry relative="1" as="geometry" />
        </mxCell>
        <mxCell id="M-NSAudVDiKB4oBg6RZZ-15" value="右源输入计算结构" style="rounded=0;whiteSpace=wrap;html=1;" vertex="1" parent="1">
          <mxGeometry x="560" y="450" width="120" height="60" as="geometry" />
        </mxCell>
        <mxCell id="M-NSAudVDiKB4oBg6RZZ-24" style="edgeStyle=orthogonalEdgeStyle;curved=1;rounded=0;orthogonalLoop=1;jettySize=auto;html=1;exitX=1;exitY=0.25;exitDx=0;exitDy=0;" edge="1" parent="1" source="M-NSAudVDiKB4oBg6RZZ-18" target="M-NSAudVDiKB4oBg6RZZ-22">
          <mxGeometry relative="1" as="geometry" />
        </mxCell>
        <mxCell id="M-NSAudVDiKB4oBg6RZZ-25" style="edgeStyle=orthogonalEdgeStyle;curved=1;rounded=0;orthogonalLoop=1;jettySize=auto;html=1;exitX=1;exitY=0.75;exitDx=0;exitDy=0;" edge="1" parent="1" source="M-NSAudVDiKB4oBg6RZZ-18" target="M-NSAudVDiKB4oBg6RZZ-23">
          <mxGeometry relative="1" as="geometry" />
        </mxCell>
        <mxCell id="M-NSAudVDiKB4oBg6RZZ-18" value="比对算法包" style="rounded=0;whiteSpace=wrap;html=1;" vertex="1" parent="1">
          <mxGeometry x="760" y="330" width="120" height="60" as="geometry" />
        </mxCell>
        <mxCell id="M-NSAudVDiKB4oBg6RZZ-27" style="edgeStyle=orthogonalEdgeStyle;curved=1;rounded=0;orthogonalLoop=1;jettySize=auto;html=1;exitX=1;exitY=0.5;exitDx=0;exitDy=0;entryX=0;entryY=0.25;entryDx=0;entryDy=0;" edge="1" parent="1" source="M-NSAudVDiKB4oBg6RZZ-22" target="M-NSAudVDiKB4oBg6RZZ-26">
          <mxGeometry relative="1" as="geometry" />
        </mxCell>
        <mxCell id="M-NSAudVDiKB4oBg6RZZ-22" value="左源输出计算结构" style="rounded=0;whiteSpace=wrap;html=1;" vertex="1" parent="1">
          <mxGeometry x="940" y="270" width="120" height="60" as="geometry" />
        </mxCell>
        <mxCell id="M-NSAudVDiKB4oBg6RZZ-28" style="edgeStyle=orthogonalEdgeStyle;curved=1;rounded=0;orthogonalLoop=1;jettySize=auto;html=1;exitX=1;exitY=0.5;exitDx=0;exitDy=0;entryX=0;entryY=0.75;entryDx=0;entryDy=0;" edge="1" parent="1" source="M-NSAudVDiKB4oBg6RZZ-23" target="M-NSAudVDiKB4oBg6RZZ-26">
          <mxGeometry relative="1" as="geometry" />
        </mxCell>
        <mxCell id="M-NSAudVDiKB4oBg6RZZ-23" value="右源输出计算结构" style="rounded=0;whiteSpace=wrap;html=1;" vertex="1" parent="1">
          <mxGeometry x="940" y="390" width="120" height="60" as="geometry" />
        </mxCell>
        <mxCell id="M-NSAudVDiKB4oBg6RZZ-31" style="edgeStyle=orthogonalEdgeStyle;curved=1;rounded=0;orthogonalLoop=1;jettySize=auto;html=1;exitX=1;exitY=0.25;exitDx=0;exitDy=0;entryX=0;entryY=0.5;entryDx=0;entryDy=0;" edge="1" parent="1" source="M-NSAudVDiKB4oBg6RZZ-26" target="M-NSAudVDiKB4oBg6RZZ-29">
          <mxGeometry relative="1" as="geometry" />
        </mxCell>
        <mxCell id="M-NSAudVDiKB4oBg6RZZ-32" style="edgeStyle=orthogonalEdgeStyle;curved=1;rounded=0;orthogonalLoop=1;jettySize=auto;html=1;exitX=1;exitY=0.75;exitDx=0;exitDy=0;entryX=0;entryY=0.5;entryDx=0;entryDy=0;" edge="1" parent="1" source="M-NSAudVDiKB4oBg6RZZ-26" target="M-NSAudVDiKB4oBg6RZZ-30">
          <mxGeometry relative="1" as="geometry" />
        </mxCell>
        <mxCell id="M-NSAudVDiKB4oBg6RZZ-26" value="比对类型+算法输出与源数据映射+dataKey" style="rounded=0;whiteSpace=wrap;html=1;" vertex="1" parent="1">
          <mxGeometry x="1120.5" y="330" width="120" height="60" as="geometry" />
        </mxCell>
        <mxCell id="M-NSAudVDiKB4oBg6RZZ-39" style="edgeStyle=orthogonalEdgeStyle;curved=1;rounded=0;orthogonalLoop=1;jettySize=auto;html=1;exitX=1;exitY=0.5;exitDx=0;exitDy=0;entryX=0.5;entryY=1;entryDx=0;entryDy=0;entryPerimeter=0;" edge="1" parent="1" source="M-NSAudVDiKB4oBg6RZZ-29" target="M-NSAudVDiKB4oBg6RZZ-33">
          <mxGeometry relative="1" as="geometry" />
        </mxCell>
        <mxCell id="M-NSAudVDiKB4oBg6RZZ-29" value="左源输出数据" style="rounded=0;whiteSpace=wrap;html=1;" vertex="1" parent="1">
          <mxGeometry x="1300" y="210" width="120" height="60" as="geometry" />
        </mxCell>
        <mxCell id="M-NSAudVDiKB4oBg6RZZ-40" style="edgeStyle=orthogonalEdgeStyle;curved=1;rounded=0;orthogonalLoop=1;jettySize=auto;html=1;exitX=1;exitY=0.5;exitDx=0;exitDy=0;entryX=0.5;entryY=1;entryDx=0;entryDy=0;entryPerimeter=0;" edge="1" parent="1" source="M-NSAudVDiKB4oBg6RZZ-30" target="M-NSAudVDiKB4oBg6RZZ-34">
          <mxGeometry relative="1" as="geometry" />
        </mxCell>
        <mxCell id="M-NSAudVDiKB4oBg6RZZ-30" value="右源输出数据" style="rounded=0;whiteSpace=wrap;html=1;" vertex="1" parent="1">
          <mxGeometry x="1300" y="450" width="120" height="60" as="geometry" />
        </mxCell>
        <mxCell id="M-NSAudVDiKB4oBg6RZZ-43" style="edgeStyle=orthogonalEdgeStyle;curved=1;rounded=0;orthogonalLoop=1;jettySize=auto;html=1;exitX=0.5;exitY=0;exitDx=0;exitDy=0;exitPerimeter=0;entryX=0;entryY=0.5;entryDx=0;entryDy=0;" edge="1" parent="1" source="M-NSAudVDiKB4oBg6RZZ-33" target="M-NSAudVDiKB4oBg6RZZ-41">
          <mxGeometry relative="1" as="geometry" />
        </mxCell>
        <mxCell id="M-NSAudVDiKB4oBg6RZZ-33" value="" style="shape=cylinder3;whiteSpace=wrap;html=1;boundedLbl=1;backgroundOutline=1;size=15;rotation=90;" vertex="1" parent="1">
          <mxGeometry x="1500" y="200" width="60" height="80" as="geometry" />
        </mxCell>
        <mxCell id="M-NSAudVDiKB4oBg6RZZ-44" style="edgeStyle=orthogonalEdgeStyle;curved=1;rounded=0;orthogonalLoop=1;jettySize=auto;html=1;exitX=0.5;exitY=0;exitDx=0;exitDy=0;exitPerimeter=0;entryX=0;entryY=0.5;entryDx=0;entryDy=0;" edge="1" parent="1" source="M-NSAudVDiKB4oBg6RZZ-34" target="M-NSAudVDiKB4oBg6RZZ-42">
          <mxGeometry relative="1" as="geometry" />
        </mxCell>
        <mxCell id="M-NSAudVDiKB4oBg6RZZ-34" value="" style="shape=cylinder3;whiteSpace=wrap;html=1;boundedLbl=1;backgroundOutline=1;size=15;rotation=90;" vertex="1" parent="1">
          <mxGeometry x="1500" y="440" width="60" height="80" as="geometry" />
        </mxCell>
        <mxCell id="M-NSAudVDiKB4oBg6RZZ-35" value="Channel" style="text;html=1;resizable=0;autosize=1;align=center;verticalAlign=middle;points=[];fillColor=none;strokeColor=none;rounded=0;" vertex="1" parent="1">
          <mxGeometry x="1480" y="225" width="70" height="30" as="geometry" />
        </mxCell>
        <mxCell id="M-NSAudVDiKB4oBg6RZZ-36" value="Channel" style="text;html=1;resizable=0;autosize=1;align=center;verticalAlign=middle;points=[];fillColor=none;strokeColor=none;rounded=0;" vertex="1" parent="1">
          <mxGeometry x="1480" y="465" width="70" height="30" as="geometry" />
        </mxCell>
        <mxCell id="M-NSAudVDiKB4oBg6RZZ-46" style="edgeStyle=orthogonalEdgeStyle;curved=1;rounded=0;orthogonalLoop=1;jettySize=auto;html=1;exitX=1;exitY=0.5;exitDx=0;exitDy=0;entryX=0.5;entryY=0;entryDx=0;entryDy=0;entryPerimeter=0;" edge="1" parent="1" source="M-NSAudVDiKB4oBg6RZZ-41" target="M-NSAudVDiKB4oBg6RZZ-45">
          <mxGeometry relative="1" as="geometry" />
        </mxCell>
        <mxCell id="M-NSAudVDiKB4oBg6RZZ-41" value="G" style="ellipse;whiteSpace=wrap;html=1;aspect=fixed;" vertex="1" parent="1">
          <mxGeometry x="1640" y="200" width="80" height="80" as="geometry" />
        </mxCell>
        <mxCell id="M-NSAudVDiKB4oBg6RZZ-47" style="edgeStyle=orthogonalEdgeStyle;curved=1;rounded=0;orthogonalLoop=1;jettySize=auto;html=1;exitX=1;exitY=0.5;exitDx=0;exitDy=0;entryX=0.5;entryY=1;entryDx=0;entryDy=0;entryPerimeter=0;" edge="1" parent="1" source="M-NSAudVDiKB4oBg6RZZ-42" target="M-NSAudVDiKB4oBg6RZZ-45">
          <mxGeometry relative="1" as="geometry" />
        </mxCell>
        <mxCell id="M-NSAudVDiKB4oBg6RZZ-42" value="G" style="ellipse;whiteSpace=wrap;html=1;aspect=fixed;" vertex="1" parent="1">
          <mxGeometry x="1640" y="440" width="80" height="80" as="geometry" />
        </mxCell>
        <mxCell id="M-NSAudVDiKB4oBg6RZZ-45" value="储存" style="shape=cylinder3;whiteSpace=wrap;html=1;boundedLbl=1;backgroundOutline=1;size=15;" vertex="1" parent="1">
          <mxGeometry x="1810" y="320" width="60" height="80" as="geometry" />
        </mxCell>
        <mxCell id="M-NSAudVDiKB4oBg6RZZ-52" value="对账集成控制" style="rounded=1;whiteSpace=wrap;html=1;" vertex="1" parent="1">
          <mxGeometry x="80" y="880" width="120" height="60" as="geometry" />
        </mxCell>
        <mxCell id="M-NSAudVDiKB4oBg6RZZ-53" value="对账服务" style="rounded=1;whiteSpace=wrap;html=1;" vertex="1" parent="1">
          <mxGeometry x="320" y="880" width="120" height="60" as="geometry" />
        </mxCell>
        <mxCell id="M-NSAudVDiKB4oBg6RZZ-54" value="存储中心" style="rounded=1;whiteSpace=wrap;html=1;" vertex="1" parent="1">
          <mxGeometry x="560" y="880" width="120" height="60" as="geometry" />
        </mxCell>
        <mxCell id="M-NSAudVDiKB4oBg6RZZ-55" value="" style="shape=curlyBracket;whiteSpace=wrap;html=1;rounded=1;labelPosition=left;verticalLabelPosition=middle;align=right;verticalAlign=middle;rotation=-90;" vertex="1" parent="1">
          <mxGeometry x="410" y="290" width="20" height="520" as="geometry" />
        </mxCell>
        <mxCell id="M-NSAudVDiKB4oBg6RZZ-56" value="" style="shape=curlyBracket;whiteSpace=wrap;html=1;rounded=1;labelPosition=left;verticalLabelPosition=middle;align=right;verticalAlign=middle;rotation=-90;" vertex="1" parent="1">
          <mxGeometry x="1175" y="305" width="20" height="490" as="geometry" />
        </mxCell>
        <mxCell id="M-NSAudVDiKB4oBg6RZZ-57" value="" style="shape=curlyBracket;whiteSpace=wrap;html=1;rounded=1;labelPosition=left;verticalLabelPosition=middle;align=right;verticalAlign=middle;rotation=-90;" vertex="1" parent="1">
          <mxGeometry x="1667.5" y="367.5" width="20" height="365" as="geometry" />
        </mxCell>
        <mxCell id="M-NSAudVDiKB4oBg6RZZ-58" value="输入数据转换成计算输入数据结构" style="text;html=1;resizable=0;autosize=1;align=center;verticalAlign=middle;points=[];fillColor=none;strokeColor=none;rounded=0;" vertex="1" parent="1">
          <mxGeometry x="320" y="560" width="200" height="30" as="geometry" />
        </mxCell>
        <mxCell id="M-NSAudVDiKB4oBg6RZZ-59" value="计算输出数据转换成输出数据" style="text;html=1;resizable=0;autosize=1;align=center;verticalAlign=middle;points=[];fillColor=none;strokeColor=none;rounded=0;" vertex="1" parent="1">
          <mxGeometry x="1095" y="560" width="180" height="30" as="geometry" />
        </mxCell>
        <mxCell id="M-NSAudVDiKB4oBg6RZZ-60" value="异步写入" style="text;html=1;resizable=0;autosize=1;align=center;verticalAlign=middle;points=[];fillColor=none;strokeColor=none;rounded=0;" vertex="1" parent="1">
          <mxGeometry x="1642.5" y="560" width="70" height="30" as="geometry" />
        </mxCell>
        <mxCell id="M-NSAudVDiKB4oBg6RZZ-62" value="" style="endArrow=none;html=1;rounded=0;curved=1;entryX=0.5;entryY=1;entryDx=0;entryDy=0;" edge="1" parent="1" target="M-NSAudVDiKB4oBg6RZZ-52">
          <mxGeometry width="50" height="50" relative="1" as="geometry">
            <mxPoint x="140" y="1380" as="sourcePoint" />
            <mxPoint x="140" y="940" as="targetPoint" />
          </mxGeometry>
        </mxCell>
        <mxCell id="M-NSAudVDiKB4oBg6RZZ-63" value="" style="endArrow=none;html=1;rounded=0;curved=1;entryX=0.5;entryY=1;entryDx=0;entryDy=0;" edge="1" parent="1">
          <mxGeometry width="50" height="50" relative="1" as="geometry">
            <mxPoint x="379.6" y="1380" as="sourcePoint" />
            <mxPoint x="379.6" y="940" as="targetPoint" />
          </mxGeometry>
        </mxCell>
        <mxCell id="M-NSAudVDiKB4oBg6RZZ-64" value="" style="endArrow=none;html=1;rounded=0;curved=1;entryX=0.5;entryY=1;entryDx=0;entryDy=0;" edge="1" parent="1">
          <mxGeometry width="50" height="50" relative="1" as="geometry">
            <mxPoint x="619.5999999999999" y="1380" as="sourcePoint" />
            <mxPoint x="619.5999999999999" y="940" as="targetPoint" />
          </mxGeometry>
        </mxCell>
        <mxCell id="M-NSAudVDiKB4oBg6RZZ-65" value="发起对账请求" style="html=1;verticalAlign=bottom;startArrow=circle;startFill=1;endArrow=open;startSize=6;endSize=8;rounded=0;curved=1;" edge="1" parent="1">
          <mxGeometry width="80" relative="1" as="geometry">
            <mxPoint x="132" y="970" as="sourcePoint" />
            <mxPoint x="380" y="970" as="targetPoint" />
          </mxGeometry>
        </mxCell>
        <mxCell id="M-NSAudVDiKB4oBg6RZZ-66" value="返回结果" style="html=1;verticalAlign=bottom;startArrow=circle;startFill=1;endArrow=open;startSize=6;endSize=8;rounded=0;curved=1;" edge="1" parent="1">
          <mxGeometry width="80" relative="1" as="geometry">
            <mxPoint x="387" y="1090" as="sourcePoint" />
            <mxPoint x="140" y="1090" as="targetPoint" />
          </mxGeometry>
        </mxCell>
        <mxCell id="M-NSAudVDiKB4oBg6RZZ-68" value="校验请求参数" style="html=1;verticalAlign=bottom;startArrow=circle;startFill=1;endArrow=open;startSize=6;endSize=8;rounded=0;curved=1;edgeStyle=orthogonalEdgeStyle;" edge="1" parent="1">
          <mxGeometry x="0.2855" width="80" relative="1" as="geometry">
            <mxPoint x="371" y="1007" as="sourcePoint" />
            <mxPoint x="380" y="1050" as="targetPoint" />
            <Array as="points">
              <mxPoint x="410" y="1007" />
              <mxPoint x="410" y="1050" />
            </Array>
            <mxPoint as="offset" />
          </mxGeometry>
        </mxCell>
        <mxCell id="M-NSAudVDiKB4oBg6RZZ-69" value="获取输入源数据" style="html=1;verticalAlign=bottom;startArrow=circle;startFill=1;endArrow=open;startSize=6;endSize=8;rounded=0;curved=1;" edge="1" parent="1">
          <mxGeometry width="80" relative="1" as="geometry">
            <mxPoint x="372" y="1130" as="sourcePoint" />
            <mxPoint x="620" y="1130" as="targetPoint" />
          </mxGeometry>
        </mxCell>
        <mxCell id="M-NSAudVDiKB4oBg6RZZ-70" value="输入源数据转换成计算输入结构" style="html=1;verticalAlign=bottom;startArrow=circle;startFill=1;endArrow=open;startSize=6;endSize=8;rounded=0;curved=1;edgeStyle=orthogonalEdgeStyle;" edge="1" parent="1">
          <mxGeometry x="0.2855" width="80" relative="1" as="geometry">
            <mxPoint x="371" y="1169" as="sourcePoint" />
            <mxPoint x="380" y="1212" as="targetPoint" />
            <Array as="points">
              <mxPoint x="410" y="1169" />
              <mxPoint x="410" y="1212" />
            </Array>
            <mxPoint as="offset" />
          </mxGeometry>
        </mxCell>
        <mxCell id="M-NSAudVDiKB4oBg6RZZ-71" value="获取输入源数据" style="html=1;verticalAlign=bottom;startArrow=circle;startFill=1;endArrow=open;startSize=6;endSize=8;rounded=0;curved=1;" edge="1" parent="1">
          <mxGeometry width="80" relative="1" as="geometry">
            <mxPoint x="1056.5" y="1180" as="sourcePoint" />
            <mxPoint x="1304.5" y="1180" as="targetPoint" />
          </mxGeometry>
        </mxCell>
        <mxCell id="M-NSAudVDiKB4oBg6RZZ-72" value="比对" style="html=1;verticalAlign=bottom;startArrow=circle;startFill=1;endArrow=open;startSize=6;endSize=8;rounded=0;curved=1;edgeStyle=orthogonalEdgeStyle;" edge="1" parent="1">
          <mxGeometry x="0.2855" width="80" relative="1" as="geometry">
            <mxPoint x="371" y="1250" as="sourcePoint" />
            <mxPoint x="380" y="1293" as="targetPoint" />
            <Array as="points">
              <mxPoint x="410" y="1250" />
              <mxPoint x="410" y="1293" />
            </Array>
            <mxPoint as="offset" />
          </mxGeometry>
        </mxCell>
        <mxCell id="M-NSAudVDiKB4oBg6RZZ-73" value="计算输出结构转换成输出数据" style="html=1;verticalAlign=bottom;startArrow=circle;startFill=1;endArrow=open;startSize=6;endSize=8;rounded=0;curved=1;edgeStyle=orthogonalEdgeStyle;" edge="1" parent="1">
          <mxGeometry x="0.2855" width="80" relative="1" as="geometry">
            <mxPoint x="371" y="1330" as="sourcePoint" />
            <mxPoint x="380" y="1373" as="targetPoint" />
            <Array as="points">
              <mxPoint x="410" y="1330" />
              <mxPoint x="410" y="1373" />
            </Array>
            <mxPoint as="offset" />
          </mxGeometry>
        </mxCell>
        <mxCell id="M-NSAudVDiKB4oBg6RZZ-74" value="" style="endArrow=none;html=1;rounded=0;curved=1;entryX=0.5;entryY=1;entryDx=0;entryDy=0;" edge="1" parent="1" target="M-NSAudVDiKB4oBg6RZZ-52">
          <mxGeometry width="50" height="50" relative="1" as="geometry">
            <mxPoint x="140" y="1520" as="sourcePoint" />
            <mxPoint x="140" y="940" as="targetPoint" />
          </mxGeometry>
        </mxCell>
        <mxCell id="M-NSAudVDiKB4oBg6RZZ-75" value="" style="endArrow=none;html=1;rounded=0;curved=1;entryX=0.5;entryY=1;entryDx=0;entryDy=0;" edge="1" parent="1">
          <mxGeometry width="50" height="50" relative="1" as="geometry">
            <mxPoint x="380" y="1520" as="sourcePoint" />
            <mxPoint x="379.5999999999999" y="940" as="targetPoint" />
          </mxGeometry>
        </mxCell>
        <mxCell id="M-NSAudVDiKB4oBg6RZZ-76" value="" style="endArrow=none;html=1;rounded=0;curved=1;entryX=0.5;entryY=1;entryDx=0;entryDy=0;" edge="1" parent="1">
          <mxGeometry width="50" height="50" relative="1" as="geometry">
            <mxPoint x="620" y="1520" as="sourcePoint" />
            <mxPoint x="619.5999999999999" y="940" as="targetPoint" />
          </mxGeometry>
        </mxCell>
        <mxCell id="M-NSAudVDiKB4oBg6RZZ-77" value="存储输出数据" style="html=1;verticalAlign=bottom;startArrow=circle;startFill=1;endArrow=open;startSize=6;endSize=8;rounded=0;curved=1;" edge="1" parent="1">
          <mxGeometry width="80" relative="1" as="geometry">
            <mxPoint x="372" y="1410" as="sourcePoint" />
            <mxPoint x="620" y="1410" as="targetPoint" />
          </mxGeometry>
        </mxCell>
        <mxCell id="M-NSAudVDiKB4oBg6RZZ-78" value="获取输入源数据" style="html=1;verticalAlign=bottom;startArrow=circle;startFill=1;endArrow=open;startSize=6;endSize=8;rounded=0;curved=1;" edge="1" parent="1">
          <mxGeometry width="80" relative="1" as="geometry">
            <mxPoint x="1066.5" y="1190" as="sourcePoint" />
            <mxPoint x="1314.5" y="1190" as="targetPoint" />
          </mxGeometry>
        </mxCell>
        <mxCell id="M-NSAudVDiKB4oBg6RZZ-79" value="" style="endArrow=none;dashed=1;html=1;dashPattern=1 3;strokeWidth=2;rounded=0;curved=1;" edge="1" parent="1">
          <mxGeometry width="50" height="50" relative="1" as="geometry">
            <mxPoint x="80" y="1110" as="sourcePoint" />
            <mxPoint x="680" y="1110" as="targetPoint" />
          </mxGeometry>
        </mxCell>
        <mxCell id="M-NSAudVDiKB4oBg6RZZ-80" value="" style="endArrow=none;dashed=1;html=1;dashPattern=1 3;strokeWidth=2;rounded=0;curved=1;" edge="1" parent="1">
          <mxGeometry width="50" height="50" relative="1" as="geometry">
            <mxPoint x="80" y="1560" as="sourcePoint" />
            <mxPoint x="80" y="1110" as="targetPoint" />
          </mxGeometry>
        </mxCell>
        <mxCell id="M-NSAudVDiKB4oBg6RZZ-81" value="" style="endArrow=none;dashed=1;html=1;dashPattern=1 3;strokeWidth=2;rounded=0;curved=1;" edge="1" parent="1">
          <mxGeometry width="50" height="50" relative="1" as="geometry">
            <mxPoint x="80" y="1560" as="sourcePoint" />
            <mxPoint x="680" y="1560" as="targetPoint" />
          </mxGeometry>
        </mxCell>
        <mxCell id="M-NSAudVDiKB4oBg6RZZ-82" value="" style="endArrow=none;dashed=1;html=1;dashPattern=1 3;strokeWidth=2;rounded=0;curved=1;" edge="1" parent="1">
          <mxGeometry width="50" height="50" relative="1" as="geometry">
            <mxPoint x="680" y="1560" as="sourcePoint" />
            <mxPoint x="680" y="1110" as="targetPoint" />
          </mxGeometry>
        </mxCell>
        <mxCell id="M-NSAudVDiKB4oBg6RZZ-83" value="&lt;font style=&quot;font-size: 18px;&quot;&gt;异步执行&lt;/font&gt;" style="text;html=1;resizable=0;autosize=1;align=center;verticalAlign=middle;points=[];fillColor=none;strokeColor=none;rounded=0;" vertex="1" parent="1">
          <mxGeometry x="330" y="1520" width="100" height="40" as="geometry" />
        </mxCell>
      </root>
    </mxGraphModel>
  </diagram>
</mxfile>
